name C:\Users\u0101727\Documents\MyRepositories\upper-imu-dc\Results\main_tracking\Case_10\FLX01_linearAccelerations_bodyFrame.mot
datacolumns 4
datarows 94
range 0.51000000 1.44000000
endheader 
time	radius_imu_x	radius_imu_y	radius_imu_z	
          0.51000000	         -3.37962731	          9.89627783	          6.74477905	
          0.52000000	         -2.22086030	          9.70352588	          5.32519990	
          0.53000000	         -1.58898821	          9.63395586	          4.41416690	
          0.54000000	         -1.31720778	          9.60710331	          3.75236336	
          0.55000000	         -0.92801152	          9.67206602	          3.10480390	
          0.56000000	          0.01673324	          9.50185696	          2.54596768	
          0.57000000	         -0.23605948	          9.62925732	          2.86545532	
          0.58000000	         -0.86179996	          9.58173673	          3.49575613	
          0.59000000	         -0.95259026	          9.50889698	          3.92764872	
          0.60000000	         -1.07487373	          9.47446828	          4.13254750	
          0.61000000	         -1.26581453	          9.47397115	          4.20182484	
          0.62000000	         -1.52269085	          9.49551856	          4.21593062	
          0.63000000	         -1.78236663	          9.54184764	          4.21525100	
          0.64000000	         -1.98118505	          9.61414276	          4.20236557	
          0.65000000	         -2.08277836	          9.70837737	          4.16326314	
          0.66000000	         -2.09611078	          9.81394646	          4.08477493	
          0.67000000	         -2.07140356	          9.91627164	          3.96387197	
          0.68000000	         -2.07820788	         10.00135520	          3.80861421	
          0.69000000	         -2.17731238	         10.05984638	          3.63416358	
          0.70000000	         -2.40057951	         10.08914672	          3.45740797	
          0.71000000	         -2.74606751	         10.09309793	          3.29279608	
          0.72000000	         -3.18592624	         10.08018357	          3.15055593	
          0.73000000	         -3.67964788	         10.06134569	          3.03691549	
          0.74000000	         -4.18668963	         10.04791388	          2.95491758	
          0.75000000	         -4.67536631	         10.04965103	          2.90478191	
          0.76000000	         -5.12692459	         10.07304310	          2.88388092	
          0.77000000	         -5.53555953	         10.12016413	          2.88699307	
          0.78000000	         -5.90632299	         10.18815340	          2.90714765	
          0.79000000	         -6.25243345	         10.26898344	          2.93648294	
          0.80000000	         -6.59183348	         10.35004248	          2.96638498	
          0.81000000	         -6.94184587	         10.41714366	          2.98742097	
          0.82000000	         -7.31195755	         10.46011577	          2.99043247	
          0.83000000	         -7.69717613	         10.47817260	          2.96894725	
          0.84000000	         -8.07586109	         10.48181645	          2.92137140	
          0.85000000	         -8.41479706	         10.49032572	          2.85131758	
          0.86000000	         -8.68042974	         10.52614472	          2.76568733	
          0.87000000	         -8.85122077	         10.60825473	          2.67145850	
          0.88000000	         -8.92512098	         10.74650105	          2.57269574	
          0.89000000	         -8.91876173	         10.93889434	          2.46903220	
          0.90000000	         -8.85903623	         11.17359076	          2.35617404	
          0.91000000	         -8.77117459	         11.43491109	          2.22806617	
          0.92000000	         -8.66874966	         11.70930044	          2.07933801	
          0.93000000	         -8.54902818	         11.98703192	          1.90660958	
          0.94000000	         -8.39297650	         12.26046823	          1.70879521	
          0.95000000	         -8.16748105	         12.52309351	          1.48793030	
          0.96000000	         -7.82945767	         12.77086987	          1.25142874	
          0.97000000	         -7.33424889	         13.00337965	          1.01493283	
          0.98000000	         -6.64988229	         13.22226467	          0.80314016	
          0.99000000	         -5.77659971	         13.43004155	          0.64841613	
          1.00000000	         -4.75484352	         13.61931815	          0.56841087	
          1.01000000	         -3.70516459	         13.79232900	          0.60499483	
          1.02000000	         -2.74415480	         13.94820376	          0.75512591	
          1.03000000	         -1.96051363	         14.06436762	          0.97624138	
          1.04000000	         -1.42541665	         14.13255117	          1.23624971	
          1.05000000	         -1.17530689	         14.13765792	          1.50210767	
          1.06000000	         -1.22222802	         14.08283703	          1.74071636	
          1.07000000	         -1.52894697	         13.98599690	          1.93604460	
          1.08000000	         -2.01678254	         13.86974367	          2.09251321	
          1.09000000	         -2.56486132	         13.77619392	          2.22398066	
          1.10000000	         -3.03708377	         13.73583530	          2.35332436	
          1.11000000	         -3.28729976	         13.77187788	          2.50394528	
          1.12000000	         -3.20568832	         13.88259127	          2.69960638	
          1.13000000	         -2.71699535	         13.94596424	          2.88931335	
          1.14000000	         -1.88453172	         13.96564589	          3.11723563	
          1.15000000	         -0.81664559	         13.94080534	          3.40359680	
          1.16000000	          0.37322716	         13.82296634	          3.72277870	
          1.17000000	          1.57612745	         13.59202330	          4.05633330	
          1.18000000	          2.70856327	         13.23933416	          4.38673058	
          1.19000000	          3.72748491	         12.77170809	          4.70210493	
          1.20000000	          4.63885037	         12.20861657	          4.99657651	
          1.21000000	          5.49044871	         11.57514444	          5.26931971	
          1.22000000	          6.35227086	         10.89328284	          5.52084876	
          1.23000000	          7.27976296	         10.17775644	          5.74988996	
          1.24000000	          8.28921496	          9.41906610	          5.95437514	
          1.25000000	          9.28960232	          8.62765717	          6.14542499	
          1.26000000	         10.26677893	          7.51187874	          6.28891809	
          1.27000000	         10.45492649	          6.50082989	          6.30504728	
          1.28000000	         11.49504882	          7.53076009	          7.78714502	
          1.29000000	         12.15144872	          6.47892933	          8.46036747	
          1.30000000	         12.05329283	          4.66954022	          8.47159643	
          1.31000000	         11.88084573	          1.93083274	          7.87051569	
          1.32000000	         11.57755679	         -0.42493930	          7.78115477	
          1.33000000	         10.13195109	          2.53035493	          7.94610276	
          1.34000000	          8.82492726	          5.46540779	          8.09113059	
          1.35000000	          7.67343506	          7.33246215	          8.39736488	
          1.36000000	          6.70018942	          4.75649463	          8.31934663	
          1.37000000	          5.77938994	          1.50213128	          8.20068956	
          1.38000000	          5.40741976	          1.98537681	          8.18414613	
          1.39000000	          4.94581785	          4.14874242	          8.60519357	
          1.40000000	          4.31973509	          2.26563059	          8.74349777	
          1.41000000	          3.71750231	          0.98535913	          8.94149464	
          1.42000000	          3.47081414	          1.87896583	          9.26907520	
          1.43000000	          3.18720578	          2.12247828	          9.51925106	
          1.44000000	          2.81082385	          2.05257093	          9.59456019	
